<?xml version="1.0" standalone="no"?>
<!DOCTYPE svg PUBLIC "-//W3C//DTD SVG 20010904//EN"
 "http://www.w3.org/TR/2001/REC-SVG-20010904/DTD/svg10.dtd">
<svg version="1.0" xmlns="http://www.w3.org/2000/svg"
 width="350.000000pt" height="350.000000pt" viewBox="0 0 350.000000 350.000000"
 preserveAspectRatio="xMidYMid meet">
<metadata>
Created by potrace 1.11, written by Peter Selinger 2001-2013
</metadata>
<g transform="translate(0.000000,350.000000) scale(0.100000,-0.100000)"
fill="#000000" stroke="none">
<path d="M145 3476 c-59 -27 -106 -77 -129 -137 -15 -40 -16 -175 -14 -1604
l3 -1560 22 -40 c25 -47 64 -85 113 -111 34 -18 92 -19 1610 -19 l1575 0 40
22 c47 25 85 64 111 113 18 34 19 95 22 1588 1 1052 -1 1566 -8 1593 -15 53
-68 119 -120 149 l-45 25 -1565 2 -1565 2 -50 -23z"/>
</g>
</svg>
