<svg id="Layer_1" data-name="Layer 1" xmlns="http://www.w3.org/2000/svg" viewBox="0 0 391 451.22"><defs><style>.cls-1{fill:#f7f2dc;}.cls-2{font-size:206px;stroke-width:16px;}.cls-2,.cls-3,.cls-5{fill:#633650;font-family:Sacramento-Regular, Sacramento;}.cls-2,.cls-3,.cls-5,.cls-7{stroke:#633650;stroke-miterlimit:10;}.cls-3{font-size:80px;}.cls-3,.cls-5{stroke-width:2px;}.cls-4{letter-spacing:-0.08em;}.cls-5{font-size:87px;}.cls-6{letter-spacing:0.07em;}.cls-7{fill:none;stroke-width:19px;}</style></defs><rect class="cls-1" x="0.5" y="0.5" width="390" height="433" rx="15.5"/><path d="M375,1a15,15,0,0,1,15,15V418a15,15,0,0,1-15,15H16A15,15,0,0,1,1,418V16A15,15,0,0,1,16,1H375m0-1H16A16,16,0,0,0,0,16V418a16,16,0,0,0,16,16H375a16,16,0,0,0,16-16V16A16,16,0,0,0,375,0Z"/><text class="cls-2" transform="translate(108.4 207.79)">+1</text><text class="cls-3" transform="translate(138.64 407.88)"><tspan class="cls-4">P</tspan><tspan x="68.09" y="0">attern</tspan></text><text class="cls-5" transform="translate(19.64 340.46)"><tspan class="cls-6">S</tspan><tspan x="77.1" y="0">hare a </tspan></text><circle class="cls-7" cx="203.75" cy="141.25" r="110.75"/></svg>