<svg xmlns="http://www.w3.org/2000/svg" viewBox="0 0 351.08 394.89"><defs><style>.cls-1{fill:#bf0000;stroke:#fff;}.cls-1,.cls-2,.cls-3{stroke-miterlimit:10;}.cls-2{stroke:#000;}.cls-3{font-size:104px;fill:#633650;stroke:#633650;stroke-width:2px;font-family:Sacramento-Regular, Sacramento;}.cls-4{letter-spacing:-0.07em;}</style></defs><g id="Layer_2" data-name="Layer 2"><g id="Layer_1-2" data-name="Layer 1"><g id="Layer_2-2" data-name="Layer 2"><g id="Layer_1-2-2" data-name="Layer 1-2"><path class="cls-1" d="M169.39,218.11s134-36.49,157.76-65.17c25.59-31.14,30-74-23.29-91.66C272,50.83,208.29,82.49,208.29,82.49S186.77,21.43,143.92,7C100.69-7.75,66.5,23.83,68.7,66.87c1.91,38.58,101.15,151.39,101.15,151.39"/></g></g><path d="M303.65,171Q320,180.4,336.34,189.6a4.5,4.5,0,1,0,4.54-7.77q-16.41-9.17-32.69-18.56a4.5,4.5,0,1,0-4.54,7.77Z"/><path d="M141.5,85.94c25,13.17,50.23,26.06,75.13,39.51q10.5,5.67,20.94,11.5a4.5,4.5,0,1,0,4.54-7.77c-24.61-13.77-49.64-26.76-74.64-39.8Q156.75,83.79,146,78.17a4.5,4.5,0,1,0-4.54,7.77Z"/><path d="M12.74,17.29q27.88,14,55.63,28.38a4.58,4.58,0,0,0,6.15-1.61c1.09-2.06.62-5-1.61-6.16Q45.18,23.56,17.29,9.52c-2.1-1.06-5-.63-6.16,1.61-1.08,2-.63,5,1.61,6.16Z"/><rect class="cls-2" x="3.51" y="2.28" width="28.03" height="23.92" rx="11.96" transform="translate(-3.44 22.64) rotate(-60.91)"/><polygon class="cls-2" points="349.75 190.9 339.81 176.9 335.75 184.76 335.75 184.76 332.23 191.09 349.75 190.9 349.75 190.9"/><text class="cls-3" transform="translate(2 338.84)"><tspan class="cls-4">F</tspan><tspan x="104.91" y="0">avorites</tspan></text></g></g></svg>