<svg xmlns="http://www.w3.org/2000/svg" viewBox="0 0 189.82 185.72"><defs><style>.cls-1{fill:none;stroke:#633650;stroke-miterlimit:10;stroke-width:5px;}.cls-2{fill:#633650;}</style></defs><g id="Layer_2" data-name="Layer 2"><g id="Layer_1-2" data-name="Layer 1"><path class="cls-1" d="M163.18,183.22H122.55a6.28,6.28,0,0,1-6.28-6.26L116,117.21a6.28,6.28,0,0,0-6.28-6.26H78.28A6.28,6.28,0,0,0,72,117.2L71.67,177a6.29,6.29,0,0,1-6.29,6.25H24.9a6.29,6.29,0,0,1-6.28-6.29V84.72a6.29,6.29,0,0,0-6.28-6.29H8.8A6.28,6.28,0,0,1,5,67.17L87.22,3.81a6.27,6.27,0,0,1,7.45-.16l90,63.36A6.28,6.28,0,0,1,181,78.43H176.1a6.3,6.3,0,0,0-6.29,6.26L169.46,177A6.28,6.28,0,0,1,163.18,183.22Z"/><path class="cls-2" d="M78.87,22.74l-54,42C21.82,67.1,26.1,71.32,29.11,69l54-42c3-2.37-1.23-6.59-4.24-4.24Z"/></g></g></svg>