<?xml version="1.0" encoding="utf-8"?>
<!-- Generator: Adobe Illustrator 24.1.2, SVG Export Plug-In . SVG Version: 6.00 Build 0)  -->
<svg version="1.1" id="Layer_1" xmlns="http://www.w3.org/2000/svg" xmlns:xlink="http://www.w3.org/1999/xlink" x="0px" y="0px"
	 viewBox="0 0 3246 494" style="enable-background:new 0 0 3246 494;" xml:space="preserve">
<style type="text/css">
	.st0{fill:#E3C37D;}
</style>
<g>
	<path class="st0" d="M173.9,91.7c16.2,9.9,31.6,23.7,37.5,42.3c12-6.1,24.3-11.7,36.9-16.5c-18.2-26.1-39.6-57.6-72-65.5
		c-0.7-0.2-1.3-0.5-1.8-0.8C158.7,57,144,64.7,130.4,73.9C145.7,77.4,160.5,83.6,173.9,91.7z"/>
</g>
<g>
	<path class="st0" d="M202.2,138.2c-4.9-17.2-19.7-29.7-34.5-38.5c-14.6-8.7-31.2-15.2-48.1-17.7c-46.2,36.2-76.7,91.6-79.3,154.1
		c15.4-6.6,29.7-16,43.4-25.5c18.8-12.9,36.9-26.9,56.9-37.8c20.6-11.3,40.9-23.3,61.7-34.2C202.2,138.5,202.2,138.3,202.2,138.2z"
		/>
</g>
<g>
	<path class="st0" d="M263.5,69.8c-9.5-12.3-21.3-21.8-36.1-26.9c-0.8-0.3-1.4-0.7-1.9-1.1c-1-0.1-2-0.5-2.9-1.4
		c-0.3-0.3-0.6-0.6-0.9-0.8C210.9,40.9,200.3,43,190,46c29.6,12.4,50.1,42.5,67.9,67.9c0.8-0.3,1.5-0.6,2.3-0.8
		c8.8-3,17.9-5.5,27.1-7.6C279.2,93.7,272.2,81.2,263.5,69.8z"/>
</g>
<g>
	<path class="st0" d="M298,102.7c-0.1-0.2-0.3-0.5-0.4-0.7c-3.9-5.4-7.5-11.1-11-16.7c-5.1-8-10.4-16.4-16.5-24
		c-7.6-9.6-16.6-17.2-26.8-22.8c1.3,0,2.6,0,3.7,0c53,0,103.3,20,141.7,56.3c-1.5,0-3.1,0-4.6,0c-6.8,0-13.9,0.2-20.9,0.5
		C339,96.4,317.7,98.8,298,102.7z"/>
	<path class="st0" d="M247,39c52.4,0,102.2,19.6,140.5,55.3c-1.1,0-2.2,0-3.3,0c-6.9,0-13.9,0.2-20.9,0.5c-24,1.1-45.3,3.5-64.9,7.3
		c-0.1-0.1-0.2-0.3-0.3-0.4c-3.8-5.4-7.5-11.1-11-16.7c-5.1-8.1-10.4-16.4-16.5-24c-7.3-9.1-15.8-16.5-25.4-22
		C245.8,39,246.4,39,247,39 M247,38c-1.9,0-3.8,0-5.7,0.1c11,5.7,20.5,13.6,28.4,23.5c10.2,12.8,18,27.3,27.5,40.6
		c0.2,0.3,0.4,0.7,0.6,1c21.6-4.2,43.8-6.4,65.5-7.5c6.9-0.3,13.9-0.5,20.9-0.5c2,0,3.9,0,5.9,0C352.8,59.8,302.5,38,247,38L247,38z
		"/>
</g>
<g>
	<path class="st0" d="M88.2,251.3c34.2-25.5,70.3-48.2,108.7-66.9c34.7-16.9,72.6-26.6,110.4-33.3c38.3-6.8,77-10.4,115.8-12.6
		c0.5,0,0.9,0,1.4-0.1c-7.1-11.7-15.3-22.7-24.4-32.8c-17.8-0.8-35.6-0.2-53.3,1.3c-35.9,3-71.5,9.7-104.8,23.8
		c-20.6,8.7-40.3,19.4-59.8,30.3c-18,10.1-36.6,19.6-53.9,30.9c-28.7,18.7-56,42.6-88.2,55.2c0.1,13.3,1.5,26.3,4,38.8
		C58.6,274.1,73.2,262.5,88.2,251.3z"/>
</g>
<g>
	<path class="st0" d="M430,148.2c-6.3,0.2-12.6,0.6-18.9,1c-38.5,2.5-77.1,6.5-115,14.1c-37.7,7.5-73.6,19-107.9,36.5
		c-51.4,26.2-97.2,60.7-141.7,97c2.3,9.1,5.3,18,8.8,26.6c26.9-13.9,50.4-33.4,77.1-47.8c4.9-2.7,9.9-5.2,14.9-7.7
		c0.9-1,2.2-1.7,3.5-1.7c21.4-10.4,43.4-19.9,64-31.8c12.8-7.5,24.8-16.2,38-23.1c11.8-6.2,24.1-11.3,36.7-15.5
		c29.3-9.7,60-13.7,90.4-18.7c19.8-3.2,39.6-6.2,59.6-8.2C436.7,161.8,433.5,154.8,430,148.2z"/>
</g>
<g>
	<path class="st0" d="M197.3,363.8c-11.7-30.6-27.8-59.8-47.9-85.7c-8,4-16,8.2-23.7,12.8c-12.7,7.6-24.5,16.6-36.9,24.7
		c-9.5,6.2-19.2,12-29.4,17C88.3,394.4,147,439.7,217,449.8C215.2,420.4,207.9,391.3,197.3,363.8z"/>
</g>
<g>
	<path class="st0" d="M259,411.3c-5.1-27.5-8.8-55.3-19.5-81.4c-10.9-26.6-27.1-50.6-43.2-74.4c-12.5,6.2-25.3,12-37.9,18.1
		c7.8,10.2,15,20.9,21.6,32c26,43.7,44.3,94.3,46.9,145.5c6.6,0.6,13.2,1,20,1c4.2,0,8.3-0.1,12.4-0.4
		C265.3,440,261.2,423.3,259,411.3z"/>
</g>
<g>
	<path class="st0" d="M317.2,439.2c-0.6-4-2-8.2-4.2-13.1c-3.2-7-5.5-13.9-7.2-21.8c-2-9.1-3.5-18.6-4.8-27.7
		c-1.3-8.6-2.6-17.6-4.5-26.3c-6.8-31.5-17-58-31.2-81.2c-8.7-14.2-18.9-27.4-26.8-37.4c2.1-1.3,4.5-2.8,7-4.3
		c12-7.3,24.3-13.3,36.6-18c25.8-9.8,53.3-14.4,79.8-18.9l5.9-1c25.1-4.2,49.7-8.2,75-10.7c7.2,21.2,10.8,43.4,10.8,66
		C453.5,331.8,398.8,409.8,317.2,439.2z"/>
	<path class="st0" d="M442.4,179.6c7.1,21.1,10.6,43.1,10.6,65.4c0,43.3-13.3,84.7-38.4,119.8c-12.1,16.9-26.6,31.8-43.2,44.4
		c-16.4,12.5-34.5,22.3-53.8,29.4c-0.7-3.9-2-7.9-4.2-12.6c-3.2-7-5.5-13.9-7.2-21.7c-2-9.1-3.5-18.6-4.8-27.7
		c-1.3-8.7-2.6-17.6-4.5-26.3c-6.8-31.6-17-58.2-31.2-81.3c-8.6-14-18.6-27.1-26.5-37c2-1.2,4.2-2.6,6.5-4
		c12-7.2,24.2-13.3,36.5-17.9c25.8-9.8,53.2-14.4,79.7-18.8c2-0.3,4-0.7,5.9-1C392.8,186,417.3,182,442.4,179.6 M443.1,178.5
		c-25.3,2.4-50.4,6.5-75.4,10.7c-29.1,4.9-58.1,9.3-85.9,19.9c-12.7,4.8-25,10.9-36.7,18c-2.5,1.5-5,3.1-7.5,4.6
		c9.7,12.1,19,24.6,27.1,37.8c15.3,24.9,24.9,52.5,31.1,81c3.9,17.9,5.4,36.2,9.4,54c1.7,7.7,4,14.7,7.3,21.9
		c2,4.5,3.6,8.9,4.3,13.5C396.8,411.3,454,334.8,454,245C454,221.7,450.1,199.4,443.1,178.5L443.1,178.5z"/>
</g>
<g>
	<path class="st0" d="M307.1,443.1c-0.6-6.6-3.6-12.2-6.3-18.5c-3.6-8.4-5.4-17.5-7-26.4c-3.1-17-4.9-34.2-8.9-51
		c-3.4-14.2-7.5-28.3-13-41.8c-10.2-25.1-25.9-47.3-42.7-68.4c-7.1,4.5-14.3,8.9-21.8,12.9c-0.7,0.4-1.4,0.7-2.1,1.1
		c9.8,14.5,19.5,29,28.1,44.2c15.1,26.6,25.5,55,30.2,85.2c2.1,13.4,5.1,26.6,7,40c1.3,9.7,2.6,20.6-0.2,30.2
		C283,449.3,295.3,446.7,307.1,443.1z"/>
</g>
<g>
	<g>
		<path class="st0" d="M350.1,416.7c73.2-76.3,190.7-95.9,291.9-96.4c131.1-0.7,259.3,33.5,389.3,45.5
			c105.2,9.8,220.4,5.5,316.3-43.6c41.6-21.3,85.5-54.3,98.2-101.7c5.7-21.2,3.1-43.6-9.7-61.7c-9.7-13.8-29-24-46.3-20.4
			c-49.6,10.5,23,77,38,88.2c43,32,96.5,48.4,149.7,50.2c63,2.1,125.6-14.5,185.3-32.8c58.6-18,116-40.4,171.3-67.1
			c54.2-26.2,104.9-61.3,161.8-81.3c54.3-19,112.8-20.2,168.6-7.8c52.9,11.8,103.9,34.9,146.8,68.2c35.7,27.6,93.5,93.1,47.2,136.9
			c-12.3,11.6-33.6,12.5-35.7-7.8c-1.2-12,6.5-23.9,13.6-32.9c16.5-20.8,41.4-34.3,65.9-43.5c58.9-22.2,123.2-20.2,185.1-22.1
			c62.3-2,123.8-10.3,183.3-29.4c27.6-8.8,54.6-19.8,80.5-32.8c22.1-11.1,44.8-23.5,59.1-44.4c11.2-16.3,12.3-34.9-2.7-49
			c-1.8-1.7-4.8-2.9-7.3-1.9c-18.6,7.5-28.6,27.4-18.4,46.2c12.9,23.7,45.7,35.4,68.7,46c62.2,28.5,128.2,47.9,195.8,58.9
			c9.4,1.5,13.5-12.9,4-14.5c-51.5-8.4-102.2-21.5-151-40.1c-24.3-9.2-48.1-19.8-71.1-31.8c-9.6-5-19.8-10.3-27.5-18.1
			c-9.7-10-11.9-25.9,3.4-32.1c-2.4-0.6-4.9-1.3-7.3-1.9c41.4,39-98.4,90.3-120.7,97.9c-59.3,20.2-120.8,29.7-183.3,31.8
			c-60.7,2.1-123.3-0.1-181.8,18.4c-39.3,12.4-89.2,37.3-101.7,80.5c-4.7,16.3,0.2,36.6,16.9,43.8c18.7,8.1,38.2-3.4,49.4-18.3
			c29.6-39.2,6.7-88.1-21.7-120.6c-33.2-37.9-80.1-65-126.4-83.5c-48.9-19.6-102.4-29.7-155.1-26.6c-55.8,3.3-106.2,23.8-154.8,50.2
			c-53.7,29.2-106.9,57.8-163.8,80.6c-57.7,23.1-117.7,42.8-178.5,55.8c-60.6,12.9-123.3,15.6-182.1-6.4
			c-25.2-9.5-49.3-23.2-69.6-41c-9.1-8.1-17.6-17-24.9-26.8c-3-4.1-7.9-9.7-9.2-14.7c-2.9-10.9,6.2-10.8,14.3-8.7
			c26.8,7,33.7,38.9,27.3,62.5c-7.2,26.5-26.5,48.6-47.7,65.2c-84.8,66.3-204.3,76.9-308.1,72.2c-128.8-5.9-254.4-39.5-383-47.2
			c-101.3-6.1-213.5,4.2-301.9,58.4c-18.7,11.5-36,25.2-51.1,41C332.8,413.1,343.4,423.7,350.1,416.7L350.1,416.7z"/>
	</g>
</g>
</svg>
