<svg xmlns="http://www.w3.org/2000/svg" viewBox="0 0 2918.62 390.14"><defs><style>.cls-1{fill:#e3c37d;}</style></defs><g id="Layer_2" data-name="Layer 2"><g id="Layer_1-2" data-name="Layer 1"><path class="cls-1" d="M12.73,387.86c73.2-76.34,190.7-95.87,291.88-96.43C435.76,290.7,563.9,324.89,693.93,337c105.19,9.78,220.37,5.47,316.26-43.59,41.57-21.28,85.53-54.33,98.22-101.68,5.68-21.17,3.1-43.6-9.68-61.72-9.74-13.82-29-24-46.27-20.38-49.55,10.51,23,77,38,88.17,43,32,96.47,48.43,149.71,50.19,63,2.08,125.57-14.47,185.28-32.81a1210.81,1210.81,0,0,0,171.25-67.08c54.18-26.19,104.85-61.33,161.85-81.3,54.27-19,112.75-20.23,168.64-7.76C1980.11,70.83,2031.1,94,2074,127.23c35.67,27.65,93.52,93.08,47.18,136.88-12.27,11.6-33.63,12.46-35.69-7.76-1.22-12,6.46-23.91,13.61-32.88,16.52-20.75,41.43-34.34,65.87-43.54,58.93-22.17,123.16-20.16,185.11-22.1,62.33-2,123.78-10.3,183.3-29.38a560.77,560.77,0,0,0,80.52-32.78C2636,84.59,2658.68,72.21,2673,51.3c11.16-16.29,12.32-34.92-2.66-49C2668.54.6,2665.49-.64,2663,.35c-18.56,7.51-28.56,27.44-18.36,46.16,12.94,23.75,45.67,35.44,68.75,46,62.25,28.53,128.24,47.87,195.77,58.88,9.45,1.54,13.51-12.92,4-14.47a772.87,772.87,0,0,1-151-40.12A657.11,657.11,0,0,1,2691.12,65c-9.58-5-19.81-10.27-27.45-18.11-9.72-10-11.9-25.89,3.35-32.06l-7.29-1.93c41.37,39-98.41,90.34-120.69,97.92-59.33,20.17-120.81,29.66-183.31,31.84-60.66,2.11-123.29-.14-181.85,18.38-39.25,12.41-89.25,37.34-101.7,80.52-4.69,16.27.23,36.58,16.88,43.77,18.74,8.08,38.17-3.43,49.41-18.31,29.59-39.16,6.74-88.13-21.68-120.57-33.24-37.94-80.08-65-126.44-83.53-48.91-19.55-102.4-29.73-155.13-26.62-55.8,3.28-106.15,23.8-154.76,50.23-53.68,29.2-106.94,57.82-163.79,80.58-57.75,23.12-117.65,42.78-178.54,55.76-60.58,12.91-123.26,15.62-182.08-6.43-25.22-9.45-49.34-23.16-69.57-41a173.61,173.61,0,0,1-24.87-26.82c-3-4.11-7.88-9.7-9.22-14.69-2.91-10.92,6.22-10.81,14.26-8.71,26.78,7,33.68,38.92,27.3,62.54-7.15,26.49-26.48,48.64-47.69,65.21-84.83,66.26-204.32,76.92-308.06,72.18-128.77-5.89-254.42-39.53-383-47.22-101.25-6.05-213.54,4.2-301.89,58.37a256.22,256.22,0,0,0-51.14,41c-6.68,7,3.91,17.59,10.6,10.61Z"/></g></g></svg>