<?xml version="1.0" encoding="utf-8"?>
<!-- Generator: Adobe Illustrator 24.1.2, SVG Export Plug-In . SVG Version: 6.00 Build 0)  -->
<svg version="1.1" id="Layer_1" xmlns="http://www.w3.org/2000/svg" xmlns:xlink="http://www.w3.org/1999/xlink" x="0px" y="0px"
	 viewBox="0 0 1279.3 434.8" style="enable-background:new 0 0 1279.3 434.8;" xml:space="preserve">
<style type="text/css">
	.st0{opacity:0.35;}
	.st1{fill:#E3C37D;}
	.st2{fill:#663650;}
	.st3{font-family:'Sacramento-Regular';}
	.st4{font-size:252px;}
	.st5{letter-spacing:-7;}
	.st6{fill:none;stroke:#663650;stroke-width:7;stroke-miterlimit:10;}
</style>
<g id="Layer_2_1_">
	<g id="Layer_1-2">
		<g class="st0">
			<path class="st1" d="M146.5,80.3c13.4,8.2,26.1,19.6,31,35c9.9-5.1,20.1-9.6,30.5-13.6c-15-21.6-32.7-47.6-59.5-54.1
				c-0.5-0.2-1-0.4-1.5-0.7c-12.9,4.7-25.1,11-36.4,18.8C123.3,68.6,135.4,73.6,146.5,80.3z"/>
			<path class="st1" d="M169.9,118.8c-4-14.2-16.3-24.5-28.5-31.8c-12.1-7.2-25.8-12.6-39.7-14.6c-39.5,30.8-63.4,77.3-65.5,127.3
				c12.7-5.5,24.5-13.2,35.9-21.1c15.5-10.7,30.5-22.2,47-31.2c17-9.3,33.8-19.3,51-28.3C169.9,119,169.9,118.9,169.9,118.8z"/>
			<path class="st1" d="M220.5,62.2c-7.8-10.2-17.6-18-29.8-22.2c-0.6-0.2-1.1-0.5-1.6-0.9c-0.9-0.1-1.8-0.5-2.4-1.2
				c-0.2-0.2-0.5-0.5-0.7-0.7c-8.9,1-17.6,2.8-26.2,5.3c24.5,10.2,41.4,35.1,56.1,56.1c0.6-0.3,1.3-0.5,1.9-0.7
				c7.4-2.5,14.8-4.6,22.4-6.3C233.5,82,227.7,71.7,220.5,62.2z"/>
			<path class="st1" d="M249.1,89.4c-0.1-0.2-0.2-0.4-0.3-0.6c-3.2-4.5-6.2-9.2-9.1-13.8c-4.2-6.6-8.6-13.6-13.6-19.8
				c-6-7.7-13.6-14.1-22.1-18.8h3.1c43.6-0.1,85.5,16.6,117.1,46.5h-3.8c-5.6,0-11.5,0.2-17.3,0.4C282.9,84.2,265.3,86.2,249.1,89.4
				z"/>
			<path class="st1" d="M206.9,36.8C250,36.7,291.5,53.1,323,82.5h-2.7c-5.7,0-11.5,0.2-17.3,0.4c-18,0.7-35.9,2.7-53.6,6
				c-0.1-0.1-0.2-0.2-0.2-0.3c-3.1-4.5-6.2-9.2-9.1-13.8c-4.2-6.9-8.7-13.5-13.6-19.8c-5.8-7.3-12.9-13.5-21-18.2H206.9 M206.9,36
				c-1.6,0-3.1,0-4.7,0.1c9.1,4.7,17.1,11.4,23.5,19.4C234.1,66,240.5,78,248.4,89c0.2,0.2,0.3,0.6,0.5,0.8
				c17.9-3.3,36-5.4,54.1-6.2c5.7-0.2,11.5-0.4,17.3-0.4h4.9C293.3,52.9,250.9,35.9,206.9,36L206.9,36z"/>
			<path class="st1" d="M75.7,212.2c28.3-21.1,58.1-39.8,89.8-55.3c28.7-14,60-22,91.2-27.5c31.6-5.6,63.6-8.6,95.7-10.4
				c0.4,0,0.8,0,1.2-0.1c-5.9-9.6-12.6-18.7-20.2-27.1c-14.7-0.6-29.4-0.2-44,1.1c-29.7,2.5-59.1,8-86.6,19.7
				c-17,7.2-33.3,16-49.4,25c-14.9,8.3-30.2,16.2-44.5,25.5c-23.7,15.5-46.3,35.2-72.9,45.6c0.1,10.8,1.2,21.5,3.3,32.1
				C51.2,231.1,63.3,221.5,75.7,212.2z"/>
			<path class="st1" d="M358.1,127c-5.2,0.2-10.4,0.5-15.6,0.8c-31.8,2.1-63.7,5.4-95,11.7c-31.2,6.2-60.8,15.7-89.2,30.2
				c-42.5,21.6-80.3,50.2-117.1,80.2c1.9,7.5,4.3,14.8,7.3,22c22.2-11.5,41.6-27.6,63.7-39.5c4-2.2,8.2-4.3,12.3-6.4
				c0.7-0.8,1.8-1.4,2.9-1.4c17.7-8.6,35.9-16.4,52.9-26.3c10.6-6.2,20.5-13.4,31.4-19.1c9.7-5.1,19.9-9.4,30.3-12.8
				c24.2-8,49.6-11.3,74.7-15.5c16.4-2.6,32.7-5.1,49.2-6.8C363.7,138.3,361.1,132.6,358.1,127z"/>
			<path class="st1" d="M165.8,305.2c-9.7-25.4-23-49.3-39.6-70.8c-6.6,3.3-13.2,6.8-19.6,10.6c-10.5,6.3-20.2,13.7-30.5,20.4
				c-7.8,5.2-15.9,9.9-24.3,14c23.9,51.1,72.4,88.5,130.2,96.8C180.6,351.9,174.6,327.9,165.8,305.2z"/>
			<path class="st1" d="M216.8,344.4c-4.2-22.7-7.3-45.7-16.1-67.3c-9-22-22.4-41.8-35.7-61.5c-10.3,5.1-20.9,9.9-31.3,15
				c6.5,8.5,12.4,17.3,17.8,26.4c21.5,36.1,36.6,77.9,38.8,120.2c5.5,0.5,10.9,0.8,16.5,0.8c3.5,0,6.9-0.1,10.2-0.3
				C222,368.1,218.6,354.3,216.8,344.4z"/>
			<path class="st1" d="M264.9,367.5c-0.7-3.7-1.8-7.4-3.5-10.8c-2.6-5.8-4.6-11.8-5.9-18c-1.7-7.5-2.9-15.4-4-22.9
				c-1.1-7.1-2.1-14.5-3.7-21.7c-5.6-26-14-47.9-25.8-67.1c-7.2-11.7-15.6-22.6-22.1-30.9c1.7-1.1,3.7-2.3,5.8-3.6
				c9.6-5.9,19.7-10.8,30.2-14.9c21.3-8.1,44-11.9,65.9-15.6l4.9-0.8c20.7-3.5,41.1-6.8,62-8.8c5.9,17.6,9,36,8.9,54.5
				C377.5,278.7,332.3,343.2,264.9,367.5z"/>
			<path class="st1" d="M368.4,153c17.3,51.7,8.7,108.6-23,153c-20,27.9-47.9,49.2-80.2,61c-0.7-3.6-1.9-7.1-3.5-10.4
				c-2.6-5.7-4.6-11.8-5.9-17.9c-1.7-7.5-2.9-15.4-4-22.9c-1.1-7.2-2.1-14.5-3.7-21.7c-5.6-26.1-14-48.1-25.8-67.2
				c-6.7-10.6-14-20.8-21.9-30.6c1.7-1,3.5-2.1,5.4-3.3c9.6-5.8,19.7-10.8,30.2-14.8c21.3-8.1,44-11.9,65.9-15.5
				c1.7-0.2,3.3-0.6,4.9-0.8C327.4,158.3,347.6,155,368.4,153 M368.9,152.1c-20.9,2-41.6,5.4-62.3,8.8c-24,4-48,7.7-71,16.4
				c-10.5,4-20.7,9-30.3,14.9c-2.1,1.2-4.1,2.6-6.2,3.8c8.1,9.9,15.6,20.4,22.4,31.2c12.6,20.6,20.6,43.4,25.7,66.9
				c3.2,14.8,4.5,29.9,7.8,44.6c1.3,6.2,3.4,12.3,6,18.1c1.7,3.5,2.9,7.3,3.6,11.2C352.4,336.5,398.8,240.5,368.9,152.1L368.9,152.1
				z"/>
			<path class="st1" d="M256.6,370.7c-0.5-5.5-3-10.1-5.2-15.3c-3-6.9-4.5-14.5-5.8-21.8c-2.6-14-4-28.3-7.4-42.1
				c-2.7-11.8-6.3-23.3-10.7-34.5c-8.4-20.7-21.4-39.1-35.3-56.5c-5.9,3.7-11.8,7.4-18,10.7c-0.6,0.3-1.2,0.6-1.7,0.9
				c8.1,12,16.1,24,23.2,36.5c12.5,22,21.1,45.4,25,70.4c1.7,11.1,4.2,22,5.8,33.1c1.1,8,2.1,17-0.2,25
				C236.5,375.8,246.7,373.7,256.6,370.7z"/>
		</g>
		<text transform="matrix(1 0 0 1 164.9 297.88)" class="st2 st3 st4 st5">T</text>
		<text transform="matrix(1 0 0 1 164.9 297.88)" class="st6 st3 st4 st5">T</text>
		<text transform="matrix(1 0 0 1 378.63 297.88)" class="st2 st3 st4">wisted</text>
		<text transform="matrix(1 0 0 1 378.63 297.88)" class="st6 st3 st4">wisted</text>
	</g>
</g>
</svg>
