<?xml version="1.0" encoding="utf-8"?>
<!-- Generator: Adobe Illustrator 24.1.2, SVG Export Plug-In . SVG Version: 6.00 Build 0)  -->
<svg version="1.1" id="Layer_1" xmlns="http://www.w3.org/2000/svg" xmlns:xlink="http://www.w3.org/1999/xlink" x="0px" y="0px"
	 viewBox="0 0 3246 494" style="enable-background:new 0 0 3246 494;" xml:space="preserve">
<style type="text/css">
	.st0{fill:#E3C37D;}
</style>
<g>
	<path class="st0" d="M173.9,91.7c16.2,9.9,31.6,23.7,37.5,42.3c12-6.1,24.3-11.7,36.9-16.5c-18.2-26.1-39.6-57.6-72-65.5
		c-0.7-0.2-1.3-0.5-1.8-0.8C158.7,57,144,64.7,130.4,73.9C145.7,77.4,160.5,83.6,173.9,91.7z"/>
</g>
<g>
	<path class="st0" d="M202.2,138.2c-4.9-17.2-19.7-29.7-34.5-38.5C153.1,91,136.5,84.5,119.6,82c-46.2,36.2-76.7,91.6-79.3,154.1
		c15.4-6.6,29.7-16,43.4-25.5c18.8-12.9,36.9-26.9,56.9-37.8c20.6-11.3,40.9-23.3,61.7-34.2C202.2,138.5,202.2,138.3,202.2,138.2z"
		/>
</g>
<g>
	<path class="st0" d="M263.5,69.8C254,57.5,242.2,48,227.4,42.9c-0.8-0.3-1.4-0.7-1.9-1.1c-1-0.1-2-0.5-2.9-1.4
		c-0.3-0.3-0.6-0.6-0.9-0.8C210.9,40.9,200.3,43,190,46c29.6,12.4,50.1,42.5,67.9,67.9c0.8-0.3,1.5-0.6,2.3-0.8
		c8.8-3,17.9-5.5,27.1-7.6C279.2,93.7,272.2,81.2,263.5,69.8z"/>
</g>
<g>
	<path class="st0" d="M298,102.7c-0.1-0.2-0.3-0.5-0.4-0.7c-3.9-5.4-7.5-11.1-11-16.7c-5.1-8-10.4-16.4-16.5-24
		c-7.6-9.6-16.6-17.2-26.8-22.8c1.3,0,2.6,0,3.7,0c53,0,103.3,20,141.7,56.3c-1.5,0-3.1,0-4.6,0c-6.8,0-13.9,0.2-20.9,0.5
		C339,96.4,317.7,98.8,298,102.7z"/>
	<path class="st0" d="M247,39c52.4,0,102.2,19.6,140.5,55.3c-1.1,0-2.2,0-3.3,0c-6.9,0-13.9,0.2-20.9,0.5c-24,1.1-45.3,3.5-64.9,7.3
		c-0.1-0.1-0.2-0.3-0.3-0.4c-3.8-5.4-7.5-11.1-11-16.7c-5.1-8.1-10.4-16.4-16.5-24c-7.3-9.1-15.8-16.5-25.4-22
		C245.8,39,246.4,39,247,39 M247,38c-1.9,0-3.8,0-5.7,0.1c11,5.7,20.5,13.6,28.4,23.5c10.2,12.8,18,27.3,27.5,40.6
		c0.2,0.3,0.4,0.7,0.6,1c21.6-4.2,43.8-6.4,65.5-7.5c6.9-0.3,13.9-0.5,20.9-0.5c2,0,3.9,0,5.9,0C352.8,59.8,302.5,38,247,38L247,38z
		"/>
</g>
<g>
	<path class="st0" d="M88.2,251.3c34.2-25.5,70.3-48.2,108.7-66.9c34.7-16.9,72.6-26.6,110.4-33.3c38.3-6.8,77-10.4,115.8-12.6
		c0.5,0,0.9,0,1.4-0.1c-7.1-11.7-15.3-22.7-24.4-32.8c-17.8-0.8-35.6-0.2-53.3,1.3c-35.9,3-71.5,9.7-104.8,23.8
		c-20.6,8.7-40.3,19.4-59.8,30.3c-18,10.1-36.6,19.6-53.9,30.9c-28.7,18.7-56,42.6-88.2,55.2c0.1,13.3,1.5,26.3,4,38.8
		C58.6,274.1,73.2,262.5,88.2,251.3z"/>
</g>
<g>
	<path class="st0" d="M430,148.2c-6.3,0.2-12.6,0.6-18.9,1c-38.5,2.5-77.1,6.5-115,14.1c-37.7,7.5-73.6,19-107.9,36.5
		c-51.4,26.2-97.2,60.7-141.7,97c2.3,9.1,5.3,18,8.8,26.6c26.9-13.9,50.4-33.4,77.1-47.8c4.9-2.7,9.9-5.2,14.9-7.7
		c0.9-1,2.2-1.7,3.5-1.7c21.4-10.4,43.4-19.9,64-31.8c12.8-7.5,24.8-16.2,38-23.1c11.8-6.2,24.1-11.3,36.7-15.5
		c29.3-9.7,60-13.7,90.4-18.7c19.8-3.2,39.6-6.2,59.6-8.2C436.7,161.8,433.5,154.8,430,148.2z"/>
</g>
<g>
	<path class="st0" d="M197.3,363.8c-11.7-30.6-27.8-59.8-47.9-85.7c-8,4-16,8.2-23.7,12.8c-12.7,7.6-24.5,16.6-36.9,24.7
		c-9.5,6.2-19.2,12-29.4,17C88.3,394.4,147,439.7,217,449.8C215.2,420.4,207.9,391.3,197.3,363.8z"/>
</g>
<g>
	<path class="st0" d="M259,411.3c-5.1-27.5-8.8-55.3-19.5-81.4c-10.9-26.6-27.1-50.6-43.2-74.4c-12.5,6.2-25.3,12-37.9,18.1
		c7.8,10.2,15,20.9,21.6,32c26,43.7,44.3,94.3,46.9,145.5c6.6,0.6,13.2,1,20,1c4.2,0,8.3-0.1,12.4-0.4
		C265.3,440,261.2,423.3,259,411.3z"/>
</g>
<g>
	<path class="st0" d="M317.2,439.2c-0.6-4-2-8.2-4.2-13.1c-3.2-7-5.5-13.9-7.2-21.8c-2-9.1-3.5-18.6-4.8-27.7
		c-1.3-8.6-2.6-17.6-4.5-26.3c-6.8-31.5-17-58-31.2-81.2c-8.7-14.2-18.9-27.4-26.8-37.4c2.1-1.3,4.5-2.8,7-4.3
		c12-7.3,24.3-13.3,36.6-18c25.8-9.8,53.3-14.4,79.8-18.9l5.9-1c25.1-4.2,49.7-8.2,75-10.7c7.2,21.2,10.8,43.4,10.8,66
		C453.5,331.8,398.8,409.8,317.2,439.2z"/>
	<path class="st0" d="M442.4,179.6c7.1,21.1,10.6,43.1,10.6,65.4c0,43.3-13.3,84.7-38.4,119.8c-12.1,16.9-26.6,31.8-43.2,44.4
		c-16.4,12.5-34.5,22.3-53.8,29.4c-0.7-3.9-2-7.9-4.2-12.6c-3.2-7-5.5-13.9-7.2-21.7c-2-9.1-3.5-18.6-4.8-27.7
		c-1.3-8.7-2.6-17.6-4.5-26.3c-6.8-31.6-17-58.2-31.2-81.3c-8.6-14-18.6-27.1-26.5-37c2-1.2,4.2-2.6,6.5-4
		c12-7.2,24.2-13.3,36.5-17.9c25.8-9.8,53.2-14.4,79.7-18.8c2-0.3,4-0.7,5.9-1C392.8,186,417.3,182,442.4,179.6 M443.1,178.5
		c-25.3,2.4-50.4,6.5-75.4,10.7c-29.1,4.9-58.1,9.3-85.9,19.9c-12.7,4.8-25,10.9-36.7,18c-2.5,1.5-5,3.1-7.5,4.6
		c9.7,12.1,19,24.6,27.1,37.8c15.3,24.9,24.9,52.5,31.1,81c3.9,17.9,5.4,36.2,9.4,54c1.7,7.7,4,14.7,7.3,21.9
		c2,4.5,3.6,8.9,4.3,13.5C396.8,411.3,454,334.8,454,245C454,221.7,450.1,199.4,443.1,178.5L443.1,178.5z"/>
</g>
<g>
	<path class="st0" d="M307.1,443.1c-0.6-6.6-3.6-12.2-6.3-18.5c-3.6-8.4-5.4-17.5-7-26.4c-3.1-17-4.9-34.2-8.9-51
		c-3.4-14.2-7.5-28.3-13-41.8c-10.2-25.1-25.9-47.3-42.7-68.4c-7.1,4.5-14.3,8.9-21.8,12.9c-0.7,0.4-1.4,0.7-2.1,1.1
		c9.8,14.5,19.5,29,28.1,44.2c15.1,26.6,25.5,55,30.2,85.2c2.1,13.4,5.1,26.6,7,40c1.3,9.7,2.6,20.6-0.2,30.2
		C283,449.3,295.3,446.7,307.1,443.1z"/>
</g>
<g>
	<g>
		<path class="st0" d="M351.1,431.3c78.7-82.1,205.1-103.1,314-103.7c141-0.8,278.9,36,418.7,48.9c113.1,10.5,237,5.9,340.2-46.9
			c44.7-22.9,92-58.4,105.6-109.4c6.1-22.8,3.3-46.9-10.4-66.4c-10.4-14.8-31.2-25.8-49.8-21.9c-53.3,11.3,24.7,82.8,40.9,94.9
			c46.2,34.4,103.8,52.1,161,54c67.8,2.3,135.1-15.6,199.3-35.3c63-19.4,124.8-43.5,184.2-72.2c58.3-28.2,112.8-65.9,174-87.4
			c58.4-20.4,121.3-21.7,181.3-8.4c56.9,12.7,111.7,37.5,157.9,73.4c38.4,29.7,100.6,100.1,50.8,147.2
			c-13.2,12.5-36.1,13.4-38.4-8.4c-1.3-12.9,7-25.7,14.6-35.4c17.7-22.4,44.5-36.9,70.9-46.8c63.3-23.9,132.5-21.7,199.1-23.8
			c67-2.2,133.2-11.1,197.1-31.6c29.7-9.5,58.7-21.3,86.6-35.3c23.8-11.9,48.2-25.3,63.6-47.8c12-17.5,13.2-37.5-2.9-52.7
			c-1.9-1.8-5.2-3.1-7.9-2c-20,8.1-30.8,29.5-19.8,49.7c13.9,25.5,49.2,38.1,73.9,49.5c66.9,30.7,137.9,51.5,210.6,63.3
			c10.1,1.6,14.5-13.9,4.3-15.6c-55.4-9-109.9-23.1-162.4-43.1c-26.1-9.9-51.7-21.3-76.5-34.2c-10.3-5.4-21.3-11.1-29.6-19.5
			c-10.4-10.8-12.8-27.9,3.7-34.5c-2.6-0.6-5.3-1.4-7.9-2c44.5,41.9-105.8,97.1-129.8,105.3c-63.8,21.7-129.9,31.9-197.1,34.2
			c-65.3,2.3-132.6-0.1-195.5,19.8c-42.3,13.3-95.9,40.1-109.4,86.6c-5.1,17.5,0.2,39.4,18.2,47.1c20.1,8.7,41.1-3.7,53.1-19.7
			c31.8-42.2,7.2-94.8-23.3-129.7c-35.7-40.8-86.2-69.9-135.9-89.8c-52.6-21.1-110.1-31.9-166.8-28.6c-60,3.5-114.2,25.6-166.5,54
			c-57.8,31.4-115,62.2-176.2,86.7c-62.1,24.8-126.6,46-192,60c-65.2,13.9-132.6,16.8-195.9-6.9c-27.1-10.2-53-25-74.9-44.1
			c-9.8-8.7-18.9-18.3-26.8-28.8c-3.2-4.4-8.5-10.4-9.9-15.8c-3.1-11.7,6.7-11.6,15.4-9.4c28.8,7.5,36.2,41.8,29.4,67.2
			c-7.7,28.5-28.5,52.3-51.3,70.1c-91.2,71.3-219.7,82.7-331.4,77.7c-138.5-6.3-273.6-42.5-411.9-50.8
			c-109-6.6-229.6,4.5-324.7,62.8c-20.1,12.4-38.7,27.1-55,44.1C332.5,427.4,343.9,438.8,351.1,431.3L351.1,431.3z"/>
	</g>
</g>
</svg>
