<svg xmlns="http://www.w3.org/2000/svg" viewBox="0 0 413.9 414.1"><defs><style>.cls-1{fill:#e3c37d;}</style></defs><g id="Layer_2" data-name="Layer 2"><g id="Layer_1-2" data-name="Layer 1"><path class="cls-1" d="M133.8,53.7C150,63.6,165.4,77.4,171.3,96a380.67,380.67,0,0,1,36.9-16.5C190,53.4,168.6,21.9,136.2,14a7.5,7.5,0,0,1-1.8-.8A204.24,204.24,0,0,0,90.3,35.9,148.89,148.89,0,0,1,133.8,53.7Z"/><path class="cls-1" d="M162.1,100.2c-4.9-17.2-19.7-29.7-34.5-38.5C113,53,96.4,46.5,79.5,44A206.56,206.56,0,0,0,.2,198.1c15.4-6.6,29.7-16,43.4-25.5,18.8-12.9,36.9-26.9,56.9-37.8,20.6-11.3,40.9-23.3,61.7-34.2A.6.6,0,0,1,162.1,100.2Z"/><path class="cls-1" d="M223.4,31.8C213.9,19.5,202.1,10,187.3,4.9a6.79,6.79,0,0,1-1.9-1.1,4.65,4.65,0,0,1-2.9-1.4,6.47,6.47,0,0,0-.9-.8A197.81,197.81,0,0,0,149.9,8c29.6,12.4,50.1,42.5,67.9,67.9a20.94,20.94,0,0,1,2.3-.8,271.12,271.12,0,0,1,27.1-7.6C239.1,55.7,232.1,43.2,223.4,31.8Z"/><path class="cls-1" d="M257.9,64.7c-.1-.2-.3-.5-.4-.7-3.9-5.4-7.5-11.1-11-16.7-5.1-8-10.4-16.4-16.5-24A88.1,88.1,0,0,0,203.2.5h3.7A205.4,205.4,0,0,1,348.6,56.8H344c-6.8,0-13.9.2-20.9.5C298.9,58.4,277.6,60.8,257.9,64.7Z"/><path class="cls-1" d="M206.9,1A205.18,205.18,0,0,1,347.4,56.3h-3.3c-6.9,0-13.9.2-20.9.5a447.43,447.43,0,0,0-64.9,7.3c-.1-.1-.2-.3-.3-.4-3.8-5.4-7.5-11.1-11-16.7a255.55,255.55,0,0,0-16.5-24A89.82,89.82,0,0,0,205.1,1h1.8m0-1c-1.9,0-3.8,0-5.7.1a87.87,87.87,0,0,1,28.4,23.5c10.2,12.8,18,27.3,27.5,40.6.2.3.4.7.6,1a469.26,469.26,0,0,1,65.5-7.5c6.9-.3,13.9-.5,20.9-.5H350A207.15,207.15,0,0,0,206.9,0Z"/><path class="cls-1" d="M48.1,213.3c34.2-25.5,70.3-48.2,108.7-66.9,34.7-16.9,72.6-26.6,110.4-33.3,38.3-6.8,77-10.4,115.8-12.6a6.6,6.6,0,0,0,1.4-.1A218.11,218.11,0,0,0,360,67.6a412.09,412.09,0,0,0-53.3,1.3c-35.9,3-71.5,9.7-104.8,23.8-20.6,8.7-40.3,19.4-59.8,30.3-18,10.1-36.6,19.6-53.9,30.9-28.7,18.7-56,42.6-88.2,55.2a205.81,205.81,0,0,0,4,38.8C18.5,236.1,33.1,224.5,48.1,213.3Z"/><path class="cls-1" d="M389.9,110.2c-6.3.2-12.6.6-18.9,1-38.5,2.5-77.1,6.5-115,14.1-37.7,7.5-73.6,19-107.9,36.5C96.7,188,50.9,222.5,6.4,258.8a202.1,202.1,0,0,0,8.8,26.6c26.9-13.9,50.4-33.4,77.1-47.8,4.9-2.7,9.9-5.2,14.9-7.7a4.9,4.9,0,0,1,3.5-1.7c21.4-10.4,43.4-19.9,64-31.8,12.8-7.5,24.8-16.2,38-23.1a246.05,246.05,0,0,1,36.7-15.5c29.3-9.7,60-13.7,90.4-18.7,19.8-3.2,39.6-6.2,59.6-8.2A204.84,204.84,0,0,0,389.9,110.2Z"/><path class="cls-1" d="M157.2,325.8a335.6,335.6,0,0,0-47.9-85.7c-8,4-16,8.2-23.7,12.8-12.7,7.6-24.5,16.6-36.9,24.7a277,277,0,0,1-29.4,17c28.9,61.8,87.6,107.1,157.6,117.2C175.1,382.4,167.8,353.3,157.2,325.8Z"/><path class="cls-1" d="M218.9,373.3c-5.1-27.5-8.8-55.3-19.5-81.4-10.9-26.6-27.1-50.6-43.2-74.4-12.5,6.2-25.3,12-37.9,18.1a331.93,331.93,0,0,1,21.6,32c26,43.7,44.3,94.3,46.9,145.5,6.6.6,13.2,1,20,1,4.2,0,8.3-.1,12.4-.4C225.2,402,221.1,385.3,218.9,373.3Z"/><path class="cls-1" d="M277.1,401.2a50.48,50.48,0,0,0-4.2-13.1,103.25,103.25,0,0,1-7.2-21.8c-2-9.1-3.5-18.6-4.8-27.7-1.3-8.6-2.6-17.6-4.5-26.3-6.8-31.5-17-58-31.2-81.2-8.7-14.2-18.9-27.4-26.8-37.4,2.1-1.3,4.5-2.8,7-4.3a225.32,225.32,0,0,1,36.6-18c25.8-9.8,53.3-14.4,79.8-18.9l5.9-1c25.1-4.2,49.7-8.2,75-10.7a204.72,204.72,0,0,1,10.8,66C413.4,293.8,358.7,371.8,277.1,401.2Z"/><path class="cls-1" d="M402.3,141.6a206.4,206.4,0,0,1-27.8,185.2,206.91,206.91,0,0,1-97,73.8,50.23,50.23,0,0,0-4.2-12.6,104.29,104.29,0,0,1-7.2-21.7c-2-9.1-3.5-18.6-4.8-27.7-1.3-8.7-2.6-17.6-4.5-26.3-6.8-31.6-17-58.2-31.2-81.3a378.62,378.62,0,0,0-26.5-37c2-1.2,4.2-2.6,6.5-4a223.75,223.75,0,0,1,36.5-17.9c25.8-9.8,53.2-14.4,79.7-18.8,2-.3,4-.7,5.9-1,25-4.3,49.5-8.3,74.6-10.7m.7-1.1c-25.3,2.4-50.4,6.5-75.4,10.7-29.1,4.9-58.1,9.3-85.9,19.9a222.78,222.78,0,0,0-36.7,18c-2.5,1.5-5,3.1-7.5,4.6a371.81,371.81,0,0,1,27.1,37.8c15.3,24.9,24.9,52.5,31.1,81,3.9,17.9,5.4,36.2,9.4,54a106.3,106.3,0,0,0,7.3,21.9,53,53,0,0,1,4.3,13.5A207.27,207.27,0,0,0,403,140.5Z"/><path class="cls-1" d="M267,405.1c-.6-6.6-3.6-12.2-6.3-18.5-3.6-8.4-5.4-17.5-7-26.4-3.1-17-4.9-34.2-8.9-51a289,289,0,0,0-13-41.8c-10.2-25.1-25.9-47.3-42.7-68.4-7.1,4.5-14.3,8.9-21.8,12.9-.7.4-1.4.7-2.1,1.1,9.8,14.5,19.5,29,28.1,44.2,15.1,26.6,25.5,55,30.2,85.2,2.1,13.4,5.1,26.6,7,40,1.3,9.7,2.6,20.6-.2,30.2A194.23,194.23,0,0,0,267,405.1Z"/></g></g></svg>