<?xml version="1.0" encoding="utf-8"?>
<!-- Generator: Adobe Illustrator 24.1.2, SVG Export Plug-In . SVG Version: 6.00 Build 0)  -->
<svg version="1.1" id="Layer_1" xmlns="http://www.w3.org/2000/svg" xmlns:xlink="http://www.w3.org/1999/xlink" x="0px" y="0px"
	 viewBox="0 0 2918.6 390.1" style="enable-background:new 0 0 2918.6 390.1;" xml:space="preserve">
<style type="text/css">
	.st0{fill:#E3C37D;}
</style>
<g id="Layer_2_1_">
	<g id="Layer_1-2">
		<path class="st0" d="M120,418.5c73.2-76.3,190.7-95.9,291.9-96.4c131.2-0.7,259.3,33.5,389.3,45.6c105.2,9.8,220.4,5.5,316.3-43.6
			c41.6-21.3,85.5-54.3,98.2-101.7c5.7-21.2,3.1-43.6-9.7-61.7c-9.7-13.8-29-24-46.3-20.4c-49.5,10.5,23,77,38,88.2
			c43,32,96.5,48.4,149.7,50.2c63,2.1,125.6-14.5,185.3-32.8c58.7-18,115.9-40.4,171.3-67.1c54.2-26.2,104.8-61.3,161.8-81.3
			c54.3-19,112.8-20.2,168.6-7.8c52.9,11.8,103.9,35,146.8,68.2c35.7,27.6,93.5,93.1,47.2,136.9c-12.3,11.6-33.6,12.5-35.7-7.8
			c-1.2-12,6.5-23.9,13.6-32.9c16.5-20.8,41.4-34.3,65.9-43.5c58.9-22.2,123.2-20.2,185.1-22.1c62.3-2,123.8-10.3,183.3-29.4
			c27.6-8.8,54.6-19.8,80.5-32.8c22.1-11.1,44.8-23.5,59.1-44.4c11.2-16.3,12.3-34.9-2.7-49c-1.8-1.7-4.9-2.9-7.3-1.9
			c-18.6,7.5-28.6,27.4-18.4,46.2c12.9,23.8,45.7,35.4,68.8,46c62.3,28.5,128.2,47.9,195.8,58.9c9.4,1.5,13.5-12.9,4-14.5
			c-51.6-8.2-102.2-21.7-151-40.1c-24.3-9.2-48-19.8-71-31.8c-9.6-5-19.8-10.3-27.4-18.1c-9.7-10-11.9-25.9,3.4-32.1l-7.3-1.9
			c41.4,39-98.4,90.3-120.7,97.9c-59.3,20.2-120.8,29.7-183.3,31.8c-60.7,2.1-123.3-0.1-181.9,18.4c-39.3,12.4-89.3,37.3-101.7,80.5
			c-4.7,16.3,0.2,36.6,16.9,43.8c18.7,8.1,38.2-3.4,49.4-18.3c29.6-39.2,6.7-88.1-21.7-120.6c-33.2-37.9-80.1-65-126.4-83.5
			c-48.9-19.6-102.4-29.7-155.1-26.6c-55.8,3.3-106.2,23.8-154.8,50.2c-53.7,29.2-106.9,57.8-163.8,80.6
			c-57.8,23.1-117.7,42.8-178.5,55.8c-60.6,12.9-123.3,15.6-182.1-6.4c-25.2-9.4-49.3-23.2-69.6-41c-9.2-8-17.5-17-24.9-26.8
			c-3-4.1-7.9-9.7-9.2-14.7c-2.9-10.9,6.2-10.8,14.3-8.7c26.8,7,33.7,38.9,27.3,62.5c-7.2,26.5-26.5,48.6-47.7,65.2
			c-84.8,66.3-204.3,76.9-308.1,72.2c-128.8-5.9-254.4-39.5-383-47.2c-101.3-6-213.5,4.2-301.9,58.4c-18.7,11.4-35.9,25.2-51.1,41
			C102.7,414.9,113.3,425.5,120,418.5L120,418.5z"/>
	</g>
</g>
</svg>
