<svg xmlns="http://www.w3.org/2000/svg" viewBox="0 0 413.97 414"><defs><style>.cls-1{fill:#e3c37d;}</style></defs><g id="Layer_2" data-name="Layer 2"><g id="Layer_1-2" data-name="Layer 1"><path class="cls-1" d="M133.84,53.7C150,63.57,165.43,77.41,171.3,96c12-6,24.29-11.68,36.88-16.52C190,53.36,168.56,21.81,136.13,13.92a5.08,5.08,0,0,1-1.79-.8A206.56,206.56,0,0,0,90.4,36,147,147,0,0,1,133.84,53.7Z"/><path class="cls-1" d="M162.13,100.18C157.25,83,142.47,70.45,127.62,61.63,113,53,96.4,46.42,79.51,43.92A206.6,206.6,0,0,0,.18,198.06c15.39-6.65,29.66-16,43.41-25.47,18.77-12.92,36.93-26.86,57-37.85,20.55-11.28,40.89-23.25,61.73-34.15C162.22,100.45,162.17,100.32,162.13,100.18Z"/><path class="cls-1" d="M223.48,31.82C214,19.49,202.2,10,187.41,5a5.32,5.32,0,0,1-1.9-1.14,4.85,4.85,0,0,1-2.87-1.43c-.28-.28-.58-.56-.88-.83A206.36,206.36,0,0,0,149.94,8c29.65,12.38,50.13,42.46,67.92,67.91.77-.26,1.53-.55,2.31-.81,8.85-3,17.91-5.48,27.09-7.59C239.13,55.73,232.18,43.16,223.48,31.82Z"/><path class="cls-1" d="M258,64.68a5.73,5.73,0,0,0-.43-.7c-3.85-5.43-7.49-11.15-11-16.68-5.13-8-10.43-16.37-16.49-24A87.6,87.6,0,0,0,203.23.54c1.34,0,2.57,0,3.74,0A205.52,205.52,0,0,1,348.7,56.82q-2.31,0-4.62,0c-6.84,0-13.88.17-20.92.5A450.36,450.36,0,0,0,258,64.68Z"/><path class="cls-1" d="M207,1A205,205,0,0,1,347.43,56.31l-3.35,0c-6.86,0-13.9.17-20.94.5a451.74,451.74,0,0,0-64.88,7.33c-.09-.14-.18-.29-.28-.43-3.84-5.42-7.48-11.13-11-16.66-5.14-8.05-10.44-16.39-16.52-24A88.49,88.49,0,0,0,205.1,1H207m0-1c-1.9,0-3.79,0-5.67.08a86.63,86.63,0,0,1,28.38,23.55c10.2,12.82,18,27.3,27.48,40.64a5.74,5.74,0,0,1,.56,1,453.27,453.27,0,0,1,65.46-7.45c6.88-.32,13.86-.5,20.9-.5,2,0,3.92,0,5.89,0A206.32,206.32,0,0,0,207,0Z"/><path class="cls-1" d="M48.18,213.3c34.25-25.52,70.25-48.17,108.66-66.9,34.66-16.9,72.56-26.6,110.38-33.3,38.27-6.78,77-10.45,115.83-12.6l1.41-.07A207.38,207.38,0,0,0,360,67.62a422.24,422.24,0,0,0-53.25,1.25c-35.9,3-71.53,9.7-104.83,23.79-20.6,8.72-40.32,19.39-59.83,30.3-18,10.08-36.59,19.59-53.91,30.86C59.51,172.48,32.22,196.44,0,209a208,208,0,0,0,4,38.85C18.53,236.07,33.19,224.48,48.18,213.3Z"/><path class="cls-1" d="M390,110.16c-6.3.2-12.6.65-18.89,1-38.54,2.48-77.08,6.55-115,14.13-37.69,7.53-73.59,19-107.85,36.49C96.85,188,51,222.5,6.53,258.79a206.18,206.18,0,0,0,8.83,26.56C42.3,271.47,65.74,252,92.45,237.58c4.91-2.65,9.89-5.18,14.9-7.66a4.81,4.81,0,0,1,3.5-1.71c21.42-10.43,43.36-19.85,64-31.83,12.84-7.46,24.83-16.21,38-23.13a243.58,243.58,0,0,1,36.68-15.49c29.28-9.67,60-13.72,90.37-18.67,19.78-3.23,39.65-6.23,59.6-8.25A206,206,0,0,0,390,110.16Z"/><path class="cls-1" d="M157.3,325.79a338.18,338.18,0,0,0-47.91-85.73c-8,4-16,8.24-23.71,12.83C73,260.45,61.13,269.47,48.74,277.55a295.72,295.72,0,0,1-29.35,17A207.19,207.19,0,0,0,176.93,411.83C175.18,382.35,167.86,353.32,157.3,325.79Z"/><path class="cls-1" d="M219,373.26c-5.1-27.55-8.79-55.25-19.49-81.36-10.9-26.6-27.14-50.64-43.17-74.36-12.52,6.2-25.26,12-37.85,18.06a334.79,334.79,0,0,1,21.61,32c26,43.71,44.34,94.3,46.92,145.47q9.86.94,20,1c4.17,0,8.3-.14,12.41-.38C225.27,402,221.22,385.27,219,373.26Z"/><path class="cls-1" d="M277.2,401.23A51.39,51.39,0,0,0,273,388.16a108.6,108.6,0,0,1-7.25-21.76c-2-9.15-3.46-18.58-4.83-27.7-1.3-8.65-2.64-17.59-4.52-26.29-6.8-31.49-17-58-31.15-81.16-8.71-14.21-18.86-27.41-26.81-37.41,2.1-1.32,4.54-2.83,7-4.31a226.89,226.89,0,0,1,36.57-18c25.8-9.81,53.27-14.41,79.83-18.86l5.94-1c25.1-4.23,49.72-8.23,75-10.65A206.66,206.66,0,0,1,277.2,401.23Z"/><path class="cls-1" d="M402.34,141.58a206.21,206.21,0,0,1-124.75,259A52.92,52.92,0,0,0,273.42,388a108,108,0,0,1-7.21-21.66c-2-9.13-3.46-18.55-4.82-27.66-1.3-8.66-2.65-17.61-4.53-26.32-6.81-31.55-17-58.15-31.22-81.32-8.59-14-18.58-27.07-26.49-37,2-1.24,4.23-2.64,6.5-4A226.66,226.66,0,0,1,242.14,172c25.75-9.8,53.19-14.39,79.73-18.84l5.94-1c25-4.21,49.44-8.19,74.53-10.62m.7-1.07c-25.27,2.41-50.38,6.48-75.4,10.7-29.1,4.91-58.12,9.33-85.86,19.88a226.85,226.85,0,0,0-36.65,18q-3.76,2.28-7.46,4.61c9.66,12.14,19,24.56,27.12,37.8,15.26,24.9,25,52.54,31.09,81,3.86,17.86,5.37,36.15,9.36,54a109.57,109.57,0,0,0,7.27,21.86,50,50,0,0,1,4.29,13.54A207.18,207.18,0,0,0,403,140.51Z"/><path class="cls-1" d="M267,405.13c-.56-6.6-3.56-12.2-6.25-18.47-3.59-8.35-5.37-17.54-7-26.44-3.13-17-4.92-34.17-8.91-51a287.47,287.47,0,0,0-13-41.79C221.71,242.31,206,220.11,189.2,199c-7.14,4.5-14.32,8.92-21.83,12.88L165.3,213c9.77,14.47,19.5,29,28.14,44.18a247.78,247.78,0,0,1,30.15,85.23c2.07,13.4,5.13,26.63,7,40.05,1.35,9.7,2.58,20.57-.2,30.22A205.68,205.68,0,0,0,267,405.13Z"/></g></g></svg>