<svg xmlns="http://www.w3.org/2000/svg" viewBox="0 0 350.52 429.65"><defs><style>.cls-1{font-size:104px;}.cls-1,.cls-3{fill:#633650;stroke:#633650;stroke-width:2px;font-family:Sacramento-Regular, Sacramento;}.cls-1,.cls-3,.cls-4{stroke-miterlimit:10;}.cls-2{letter-spacing:-0.01em;}.cls-3{font-size:63px;}.cls-4{fill:none;stroke:#e3c37d;stroke-width:19px;}.cls-5{fill:#e3c37d;}</style></defs><g id="Layer_2" data-name="Layer 2"><g id="Layer_1-2" data-name="Layer 1"><text class="cls-1" transform="translate(7.08 373.6)"><tspan class="cls-2">A</tspan><tspan x="108.42" y="0">ccount</tspan></text><text class="cls-3" transform="translate(163.08 308.77)">My</text><circle class="cls-4" cx="168.96" cy="130.82" r="121.32"/><path class="cls-5" d="M225,107.29a46.21,46.21,0,0,0,7.79-30.9,48,48,0,0,0-11.09-25.8c-11.91-14.09-32.26-19.73-49.76-13.94a46.64,46.64,0,0,0-21.88,15.08,47.66,47.66,0,0,0-10.31,26.21A47,47,0,0,0,165,122.64a48,48,0,0,0,29,4.51,46.12,46.12,0,0,0,26.15-13.8,51.55,51.55,0,0,0,4.88-6.06c1.81-2.58.55-6.78-2.15-8.21a6.16,6.16,0,0,0-8.21,2.16l-1,1.34c-.46.63.76-.94.26-.35l-.47.58c-.7.84-1.44,1.66-2.21,2.45s-1.48,1.47-2.26,2.16c-.37.32-.74.64-1.12,1a3.48,3.48,0,0,0-.57.46c.68-.52.84-.65.48-.38l-.44.33a40.83,40.83,0,0,1-5.5,3.39c-.44.23-.88.44-1.33.65l-.68.31c-.77.35-.59-.13.23-.09a4.88,4.88,0,0,0-1.39.54c-.59.21-1.18.41-1.78.6-1,.3-1.94.56-2.92.79-.5.11-1,.22-1.49.31a9.92,9.92,0,0,0-1.9.32c.87-.39,1.07-.13.45-.06l-.77.08c-.58,0-1.17.1-1.75.13-1.13.06-2.27.07-3.4,0s-2-.09-2.95-.19l-.69-.08c-1-.11.5.07.57.08-.55-.11-1.12-.17-1.68-.28a40.65,40.65,0,0,1-5.54-1.45c-.48-.16-.95-.34-1.42-.51s-1.93-1-.26-.09c-.86-.48-1.81-.83-2.68-1.29a41.34,41.34,0,0,1-4.76-2.93c-.36-.26-.7-.54-1.06-.78,1.61,1.1.15.09-.19-.19q-1.12-.94-2.19-2c-.66-.64-1.31-1.31-1.93-2-.29-.32-.58-.65-.86-1s-1.39-1.9-.29-.32c-1.07-1.54-2.16-3-3.09-4.65-.46-.82-.89-1.65-1.3-2.49-.21-.44-.37-.94-.62-1.36,0,.06.58,1.42.22.52l-.36-.93a42.39,42.39,0,0,1-1.64-5.47c-.21-1-.37-1.9-.53-2.85-.12-.77.17,1.35.08.57,0-.23-.06-.45-.08-.68-.06-.58-.11-1.15-.15-1.73a41.66,41.66,0,0,1,.07-6.12c0-.46.09-.92.14-1.38.11-1-.07.5-.08.57,0-.22.07-.45.1-.67.17-1,.37-2,.61-3a43.75,43.75,0,0,1,1.78-5.59c.17-.44.62-1-.16.36a4.72,4.72,0,0,0,.27-.61l.57-1.19q.66-1.34,1.41-2.61c.48-.81,1-1.59,1.51-2.36.24-.36.5-.72.76-1.07l.39-.53c.36-.49-1,1.2-.13.19a45.52,45.52,0,0,1,3.91-4.19c.64-.59,1.29-1.17,2-1.72a6.54,6.54,0,0,0,.51-.41c-1.07,1-.78.59-.43.34s.88-.65,1.33-1a39.82,39.82,0,0,1,5-2.94l1.35-.64a6.46,6.46,0,0,0,.6-.27c-.06,0-1.42.58-.51.22s1.87-.72,2.82-1A40.9,40.9,0,0,1,181,46.75l.85-.14c.77-.12-1.36.16-.58.08.52-.06,1-.12,1.55-.16,1-.09,2.09-.14,3.14-.15s1.87,0,2.81.07c.46,0,.92.06,1.38.11l.69.07.68.08-.91-.12c2,.4,3.88.7,5.79,1.28.91.27,1.81.57,2.7.91.41.15.82.34,1.23.49-1.83-.65-.07,0,.39.2a39.64,39.64,0,0,1,4.88,2.75c.78.51,1.53,1.06,2.28,1.61s-1.21-1-.31-.24l.51.42c.42.35.83.71,1.23,1.07a39.5,39.5,0,0,1,3.87,4c.28.33.53.7.83,1-1.26-1.31-.16-.21.15.22.58.8,1.13,1.62,1.64,2.46,1,1.65,1.71,3.47,2.68,5.12,0-.06-.57-1.42-.22-.51.08.2.17.41.25.62.16.41.31.83.46,1.25.33,1,.63,1.91.89,2.88s.46,1.87.64,2.81c.1.5.18,1,.26,1.51s0,1.08-.07-.57c0,.28.07.57.1.86a41.85,41.85,0,0,1,.18,6.53c0,.57-.07,1.14-.13,1.71l-.09.86c-.14,1.42.18-1,0-.12-.23,1.25-.45,2.49-.75,3.72s-.63,2.27-1,3.39c-.19.52-.38,1-.58,1.55-.12.33-.5,1,.14-.29-.19.36-.33.76-.51,1.13a41.81,41.81,0,0,1-3.45,6c-1.78,2.59-.57,6.77,2.15,8.2a6.14,6.14,0,0,0,8.21-2.15Z"/><path class="cls-5" d="M137.52,284.74a356.43,356.43,0,0,1,1.17-47.24q.5-5.26,1.17-10.51c0-.2.24-1.76.1-.72s.07-.5.1-.7c.12-.88.24-1.74.37-2.61.25-1.65.51-3.3.78-4.94q1.57-9.42,3.81-18.72a214,214,0,0,1,10.16-31.42c.38-.9-.57,1.34-.18.44.12-.29.24-.58.37-.87.24-.57.49-1.13.75-1.7.47-1.07,1-2.13,1.46-3.19q1.46-3.09,3-6.11a121.83,121.83,0,0,1,6.25-10.55q1.51-2.27,3.15-4.45l.35-.46c.66-.87-.58.74-.41.53l.81-1c.52-.64,1-1.27,1.57-1.89a58.19,58.19,0,0,1,6.25-6.31l.73-.61c.28-.23,1.35-1.06.28-.24s-.1.08.17-.11l.76-.55a29.39,29.39,0,0,1,2.89-1.77c.48-.25,1-.48,1.45-.71,1.05-.49-1.64.63-.67.28l.7-.26a19.45,19.45,0,0,1,2.6-.67c.84-.17-2.07.22-.76.1l1-.08c.67,0,1.35,0,2,0s1.34.06,2,.13a5.15,5.15,0,0,0,.53.07c-.07,0-1.89-.29-1-.13.36.06.72.11,1.07.18a30.19,30.19,0,0,1,4.29,1.16l1,.38.48.19c1,.41-.3-.07-.64-.28.65.41,1.47.66,2.16,1a42.48,42.48,0,0,1,4.41,2.6c.73.49,1.44,1,2.16,1.53s-.88-.69-.58-.44l.56.44,1.11.91a61.94,61.94,0,0,1,8.42,8.79c.3.38.95,1.29-.27-.35.15.19.3.38.44.58.35.46.69.93,1,1.39.66.93,1.31,1.88,1.93,2.83,1.34,2.06,2.59,4.18,3.76,6.34s2.35,4.61,3.39,7l.42,1c.51,1.18-.44-1.08-.08-.18.27.67.54,1.33.8,2,.52,1.32,1,2.65,1.48,4a135,135,0,0,1,4.89,18c.67,3.36,1.18,6.73,1.69,10.12,0-.13-.19-1.48-.06-.42,0,.19.05.39.08.59.05.39.1.79.14,1.18.12,1,.23,2,.34,3q.28,2.79.48,5.58c.28,3.84.44,7.69.51,11.54.05,3.14,2.72,6.15,6,6a6.1,6.1,0,0,0,6-6,180.66,180.66,0,0,0-5.94-44.63,110.44,110.44,0,0,0-13.68-31.36,69,69,0,0,0-19-19.78,39.37,39.37,0,0,0-20.09-6.93,25.25,25.25,0,0,0-15.2,4.51c-5.75,3.87-10.37,8.93-14.56,14.39a119,119,0,0,0-12.77,21.26A198.62,198.62,0,0,0,136,186.66,272.28,272.28,0,0,0,128,226a334.74,334.74,0,0,0-2.76,46.29q0,6.21.29,12.41c.12,3.13,2.67,6.15,6,6,3.14-.14,6.13-2.64,6-6Z"/></g></g></svg>