<svg xmlns="http://www.w3.org/2000/svg" viewBox="0 0 346.3 425.74"><defs><style>.cls-1{font-size:104px;}.cls-1,.cls-3{fill:#633650;stroke:#633650;stroke-miterlimit:10;stroke-width:2px;font-family:Sacramento-Regular, Sacramento;}.cls-2{letter-spacing:-0.08em;}.cls-3{font-size:63px;}.cls-4{fill:#e3c37d;}</style></defs><g id="Layer_2" data-name="Layer 2"><g id="Layer_1-2" data-name="Layer 1"><text class="cls-1" transform="translate(18.22 369.69)"><tspan class="cls-2">P</tspan><tspan x="88.51" y="0">atterns</tspan></text><text class="cls-3" transform="translate(194.22 304.87)">My</text><path class="cls-4" d="M257.44,198c-9.09-5.24-17.79-12.63-21.32-22.82A207.82,207.82,0,0,1,216,184.82c10.43,14.15,22.71,31.23,40.71,35.12a4.09,4.09,0,0,1,1,.42,112.48,112.48,0,0,0,24-13.18A82.47,82.47,0,0,1,257.44,198Z"/><path class="cls-4" d="M241.14,172.72c3,9.43,11.31,16.11,19.61,20.76a73.78,73.78,0,0,0,26.82,9.07,114.09,114.09,0,0,0,41.54-86.25c-8.4,3.87-16.16,9.27-23.59,14.72-10.19,7.39-20,15.39-30.87,21.7-11.21,6.54-22.25,13.46-33.57,19.78A.37.37,0,0,1,241.14,172.72Z"/><path class="cls-4" d="M208.28,211.38c5.43,6.66,12.08,11.73,20.33,14.33a3.88,3.88,0,0,1,1.06.58,2.59,2.59,0,0,1,1.63.73,3.72,3.72,0,0,0,.5.43,109.54,109.54,0,0,0,17.42-4C232.69,217,220.93,200.72,210.73,187a10.59,10.59,0,0,1-1.25.47,150.56,150.56,0,0,1-14.86,4.6C199.27,198.41,203.31,205.21,208.28,211.38Z"/><path class="cls-4" d="M188.75,193.72c.06.11.18.27.23.38,2.24,2.92,4.31,6,6.32,9.06a148.79,148.79,0,0,0,9.46,13,48.7,48.7,0,0,0,15.13,12.2l-2,.06a113.47,113.47,0,0,1-79.07-29l2.54-.07c3.76-.1,7.68-.31,11.54-.58A241,241,0,0,0,188.75,193.72Z"/><path class="cls-4" d="M217.84,228.15a113.39,113.39,0,0,1-78.39-28.49l1.83,0c3.81-.1,7.67-.31,11.53-.58a246.66,246.66,0,0,0,35.73-5c.06.06.12.17.17.22,2.18,2.93,4.31,6,6.32,9.06a140.4,140.4,0,0,0,9.46,13,49.59,49.59,0,0,0,14.35,11.77l-1,0m0,.55c1,0,2.1,0,3.14-.14A48.55,48.55,0,0,1,205,216c-5.82-6.92-10.34-14.81-15.78-22-.11-.16-.23-.38-.34-.54a259.48,259.48,0,0,1-36.06,5.09c-3.81.27-7.67.48-11.54.58l-3.26.09a114.46,114.46,0,0,0,79.86,29.5Z"/><path class="cls-4" d="M302.44,108.61a375.6,375.6,0,0,1-59.05,38.52c-18.91,9.84-39.7,15.75-60.48,20a540.79,540.79,0,0,1-63.76,8.64,4,4,0,0,0-.77.07,120.19,120.19,0,0,0,14,17.76,229.11,229.11,0,0,0,29.41-1.49c19.79-2.18,39.35-6.4,57.53-14.67,11.25-5.1,22-11.3,32.58-17.6,9.79-5.84,19.93-11.36,29.31-17.85,15.58-10.74,30.31-24.34,47.91-31.76a114,114,0,0,0-2.78-21.37C318.46,95.59,310.56,102.2,302.44,108.61Z"/><path class="cls-4" d="M115.2,170.51c3.48-.2,7-.51,10.42-.82,21.23-1.94,42.48-4.72,63.3-9.46S229.29,148.66,248,138.5c28-15.21,52.79-34.93,76.84-55.62a110.77,110.77,0,0,0-5.25-14.57c-14.65,8.07-27.34,19.18-41.88,27.52-2.66,1.56-5.39,3-8.11,4.47a2.71,2.71,0,0,1-1.91,1c-11.67,6-23.68,11.62-34.88,18.49-7,4.33-13.46,9.31-20.65,13.31a134.73,134.73,0,0,1-20,9.09c-16,5.79-32.93,8.44-49.64,11.65-10.89,2-21.78,4-32.8,5.39A112.58,112.58,0,0,0,115.2,170.51Z"/><path class="cls-4" d="M240.56,48.07a185.37,185.37,0,0,0,27.7,46.63c4.36-2.33,8.71-4.76,12.9-7.41,6.9-4.39,13.29-9.53,20-14.18a152.74,152.74,0,0,1,16-9.82A114.42,114.42,0,0,0,228.43.87C229.85,17.08,234.31,33,240.56,48.07Z"/><path class="cls-4" d="M205.8,22.74c3.21,15.11,5.66,30.41,11.95,44.67,6.41,14.53,15.7,27.54,24.94,40.45,6.81-3.6,13.79-7,20.66-10.55A184.24,184.24,0,0,1,251,80c-15-23.75-25.83-51.43-28-79.66-3.65-.24-7.3-.36-11.05-.27-2.32.07-4.59.18-6.85.41C201.9,7,204.41,16.15,205.8,22.74Z"/><path class="cls-4" d="M173.25,8.18a28.07,28.07,0,0,0,2.51,7.17,57.38,57.38,0,0,1,4.3,11.94c1.23,5,2.2,10.22,3.05,15.22C184,47.24,184.8,52.19,186,57c4.21,17.3,10.23,31.78,18.41,44.39a216.81,216.81,0,0,0,15.34,20.26c-1.14.75-2.44,1.61-3.8,2.47a124.79,124.79,0,0,1-20,10.48c-14.1,5.78-29.22,8.72-43.79,11.59l-3.24.64c-13.8,2.69-27.33,5.25-41.26,7a113,113,0,0,1-6.93-36.29A114.39,114.39,0,0,1,173.25,8.18Z"/><path class="cls-4" d="M107.9,153.35A114,114,0,0,1,173,8.52a28.1,28.1,0,0,0,2.5,6.89,58.12,58.12,0,0,1,4.3,11.88c1.23,5,2.2,10.22,3,15.23.84,4.78,1.69,9.68,2.87,14.46C190,74.33,196,88.87,204.17,101.42a208.47,208.47,0,0,0,15.17,20c-1.09.69-2.28,1.5-3.53,2.31a123.77,123.77,0,0,1-19.89,10.41c-14.11,5.79-29.17,8.73-43.74,11.54-1.1.2-2.2.45-3.25.64-13.74,2.74-27.21,5.3-41,7m-.37.62c13.93-1.69,27.73-4.32,41.48-7,16-3.13,31.94-6,47.14-12.24a123.31,123.31,0,0,0,20-10.48c1.36-.86,2.72-1.78,4.08-2.65a206.56,206.56,0,0,1-15.52-20.47C195.9,87.6,190.2,72.5,186.36,56.85c-2.41-9.83-3.51-19.91-6-29.68a59.71,59.71,0,0,0-4.35-12,29.58,29.58,0,0,1-2.58-7.39A114.48,114.48,0,0,0,107.53,154Z"/><path class="cls-4" d="M178.77,5.88c.43,3.64,2.17,6.68,3.75,10.12a66.8,66.8,0,0,1,4.25,14.48c2,9.34,3.21,18.81,5.66,28a158.35,158.35,0,0,0,7.79,22.9c6,13.71,15,25.74,24.57,37.15,3.86-2.59,7.77-5.13,11.85-7.45.38-.23.76-.4,1.14-.63-5.62-7.87-11.19-15.73-16.16-24a137.85,137.85,0,0,1-17.91-46.61c-1.36-7.37-3.21-14.61-4.45-22-.86-5.33-1.74-11.33-.33-16.68A108.09,108.09,0,0,0,178.77,5.88Z"/><path class="cls-4" d="M82.49,67.77c-10-8.55-20.89-17.06-34-20s-26.93-.43-37.17,8.33c-15.76,13.48-14.75,40.44,1.1,53.48a34,34,0,0,0,14.81,7.35c6.48,1.3,13.51,1.2,19.69-1.32a24.56,24.56,0,0,0,9-5.75,22.79,22.79,0,0,0,4.89-8.31A19,19,0,0,0,57.3,83.39c-4.22-5.11-11.75-7.4-18.18-7.24a34.75,34.75,0,0,0-18.57,6.16c-10.88,7.52-18.06,20.57-17.19,34,.84,12.93,8.61,24.3,19.82,30.63,11.66,6.6,25.23,6.91,37.88,10.34a58.57,58.57,0,0,1,7.29,2.5l-1.8-.76a58.86,58.86,0,0,1,8.07,4.21c1.27.8,2.49,1.67,3.7,2.55s-1.54-1.22-.24-.18l.84.68c.59.49,1.18,1,1.75,1.52q1.65,1.5,3.16,3.15c.51.56,1,1.14,1.5,1.73.23.27.44.55.67.83-1.51-1.84-.66-.86-.33-.4a38.54,38.54,0,0,1,4.46,7.82l-.75-1.79a33.83,33.83,0,0,1,2.2,8l-.27-2a32,32,0,0,1,0,8.18l.27-2c-.56,4.14-1.85,8.2-2.79,12.26A79.89,79.89,0,0,1,85,216.32l.76-1.79a48.4,48.4,0,0,1-3,5.8c-.55.9-1.11,1.78-1.71,2.65q-.45.66-.93,1.32c-.34.47-1.64,1.83-.06.11-1.47,1.6-2.77,3.31-4.39,4.79-.38.35-.79.69-1.18,1-1,.85,1.59-1.14,0,0a15.83,15.83,0,0,1-2.32,1.36l1.79-.76a11.17,11.17,0,0,1-2.54.72l2-.27a11.73,11.73,0,0,1-2.9,0l2,.27a12.89,12.89,0,0,1-2.8-.76l1.79.76a13.29,13.29,0,0,1-1.68-.86c-.6-.37-1.32-1.2.45.42-.21-.2-.45-.37-.66-.57s-.41-.4-.6-.62c-.94-1,.42.33.44.62,0-.43-.81-1.35-1-1.77l.75,1.79a10,10,0,0,1-.65-2.29l.27,2a11.44,11.44,0,0,1,0-2.68l-.26,2a15.3,15.3,0,0,1,1-3.63l-.76,1.79a22.46,22.46,0,0,1,1.92-3.5l.46-.66c.83-1.19-.87,1-.31.4s.86-1,1.31-1.49.81-.82,1.24-1.21c.23-.2.46-.41.7-.6,1-.82-.37.15-.54.4A5.58,5.58,0,0,1,75.19,220c.61-.32,1.23-.6,1.86-.86l-1.79.75a120.81,120.81,0,0,1,12.8-4.13,109.29,109.29,0,0,1,14.21-3l-2,.27a64,64,0,0,1,16.88-.07l-2-.27c8.93,1.24,17.69,3.8,26.42,6,4.46,1.13,8.92,2.38,13.43,3.27,5,1,10.1,1.38,15.14,2.05l-2-.26c3.81.52,7.58,1.31,11.38,1.86,4.35.63,8.7,1.16,13.07,1.55a7.49,7.49,0,0,0,5.3-2.19,7.66,7.66,0,0,0,2.2-5.31c-.2-4.36-3.31-7.12-7.5-7.5q-4.59-.4-9.15-1l2,.26c-3.75-.51-7.46-1.21-11.2-1.82-4.17-.67-8.38-1.06-12.57-1.61l2,.27a144.91,144.91,0,0,1-16.45-3.61c-5.43-1.37-10.86-2.76-16.3-4.09a112,112,0,0,0-17.44-3,74.25,74.25,0,0,0-17.79,1.12,114.74,114.74,0,0,0-16,3.86c-2.44.77-4.91,1.52-7.31,2.4a28.73,28.73,0,0,0-8.57,4.73,29.16,29.16,0,0,0-9.37,13.68A17.59,17.59,0,0,0,58,240.08c3.24,3.92,8.38,6,13.37,6.27,5.62.31,10.4-2.57,14.47-6.15a52.71,52.71,0,0,0,9.67-12,57.78,57.78,0,0,0,6.41-15.09c1.35-4.93,2.55-10,3.68-14.94a41,41,0,0,0,.38-15.8c-1.46-9-6.63-17.28-13-23.63a63.32,63.32,0,0,0-23.57-14.63c-9.58-3.42-19.87-4-29.64-6.7A57.57,57.57,0,0,1,32.62,135l1.8.75A36.45,36.45,0,0,1,29,132.92c-.46-.29-.91-.6-1.35-.92-.2-.14-.4-.28-.59-.43-.82-.59.58.4.65.51-.2-.34-.82-.67-1.12-.93s-.82-.72-1.21-1.1c-.7-.67-1.37-1.37-2-2.09-.32-.37-.62-.74-.93-1.11-.57-.69,1.11,1.5.4.51l-.42-.58a29.8,29.8,0,0,1-3-5.35l.75,1.79a28.91,28.91,0,0,1-1.94-7l.27,2a30.69,30.69,0,0,1,0-7.72l-.27,2a33.19,33.19,0,0,1,2.13-7.82l-.76,1.79A33.7,33.7,0,0,1,22.59,101c.28-.43.59-.84.89-1.27.76-1.08-1.15,1.38-.23.3.67-.79,1.34-1.57,2.07-2.31s1.47-1.41,2.25-2.06c.48-.39,1.48-.89-.36.27.42-.27.81-.59,1.22-.87a31.35,31.35,0,0,1,5.32-2.87L32,92.94a28.12,28.12,0,0,1,6.55-1.84l-2,.27a22.29,22.29,0,0,1,5.94,0l-2-.27a19.35,19.35,0,0,1,4.31,1.17L43,91.48a17.33,17.33,0,0,1,2.39,1.22c.28.17.55.38.83.55-1.89-1.1-1-.79-.43-.26.26.25.49.51.73.77.79.86-1.08-1.61-.45-.57A15.25,15.25,0,0,1,47,95l-.75-1.79a12.64,12.64,0,0,1,.67,2.48l-.27-2a12.93,12.93,0,0,1,0,3.46l.27-2a14.81,14.81,0,0,1-.95,3.4l.75-1.79A14.61,14.61,0,0,1,45.51,99c-.11.17-.24.33-.34.5-.4.67,1.17-1.36.62-.8-.32.33-.6.69-.92,1-.12.12-.91.69-.91.82,0-.06,1.6-1.16.79-.61-.21.13-.41.28-.62.42a19.85,19.85,0,0,1-3,1.58l1.79-.75a25.28,25.28,0,0,1-6.29,1.66l2-.27a30.23,30.23,0,0,1-7.72,0l2,.26A28.44,28.44,0,0,1,26,100.85l1.79.76a26.35,26.35,0,0,1-4.5-2.5c-.55-.38-1.79-1.47.23.23l-.89-.73c-.65-.56-1.27-1.15-1.87-1.77s-1.06-1.22-1.6-1.83,1.11,1.52.65.84c-.13-.19-.28-.38-.42-.57s-.43-.62-.64-.94a29.57,29.57,0,0,1-2.41-4.51l.76,1.79A30.93,30.93,0,0,1,14.92,84l.27,2a30.15,30.15,0,0,1,0-7.94l-.27,2a28.25,28.25,0,0,1,1.86-6.88L16,74.91a26.68,26.68,0,0,1,2-3.86c.42-.66,2.23-2.85.37-.66.49-.58,1-1.16,1.48-1.71A23.81,23.81,0,0,1,21.64,67c.38-.34.8-.65,1.18-1-1.73,1.55-.63.5-.14.16a30,30,0,0,1,5.15-2.83L26,64.06a35.51,35.51,0,0,1,8.81-2.4l-2,.26a39.82,39.82,0,0,1,10.29,0l-2-.27a44.18,44.18,0,0,1,11,3.06L50.36,64a65.72,65.72,0,0,1,11.93,6.78c.92.65,1.84,1.32,2.74,2l.68.51c.76.57-1.25-1-.51-.39l1.33,1.06c1.81,1.45,3.59,2.94,5.35,4.45a8,8,0,0,0,5.3,2.2,7.66,7.66,0,0,0,5.31-2.2c2.57-2.8,3.18-7.88,0-10.6Z"/></g></g></svg>